<svg xmlns="http://www.w3.org/2000/svg" viewBox="0 0 512 260.05"><defs><style>.cls-1{isolation:isolate;}.cls-2{opacity:0.75;mix-blend-mode:multiply;}.cls-3{fill:#7f5c00;}.cls-4{fill:#fdb714;}.cls-5{fill:#4b002a;}.cls-6{fill:#808285;}.cls-7{fill:#9e2064;}.cls-8{fill:#fff;}.cls-9{fill:#2f4800;}.cls-10{fill:#a6ce39;}.cls-11{fill:#002139;}.cls-12{fill:#2779a8;}</style></defs><title>community-casue-logo</title><g class="cls-1"><g id="Layer_2" data-name="Layer 2"><g id="Logo"><g class="cls-2"><path class="cls-3" d="M223.69,242.31l-44.19-28-14.07,24-22.18-16.76L121.72,260,107,214.35l-26.9,7-3.83-27.53L18,204.18l37.79-41.09L31.78,149l16.76-22.18L2,100.43,55.75,90.6l-7-26.9,27.53-3.83L60.53,15.3l46.48,24,14.07-24,22.17,16.76L168.26,2,179.5,39.34l26.9-7L209.94,66,201,72.68c-13.28-13-30.85-20.87-50.14-20.87C109.51,51.81,76,88.19,76,133.05s33.55,81.25,74.93,81.25c21.93,0,41.65-10.21,55.35-26.49l7.41,5Z"/></g><path class="cls-4" d="M221.69,240.31l-44.19-28-14.07,24-22.18-16.76L119.72,258,105,212.35l-26.9,7-3.83-27.53L16,202.18l37.79-41.09L29.78,147l16.76-22.18L0,98.43,53.75,88.6l-7-26.9,27.53-3.83L58.53,13.3l46.48,24,14.07-24,22.17,16.76L166.26,0,177.5,37.34l26.9-7L207.94,64,199,70.68c-13.28-13-30.85-20.87-50.14-20.87C107.51,49.81,74,86.19,74,131.05s33.55,81.25,74.93,81.25c21.93,0,41.65-10.21,55.35-26.49l7.41,5Z"/><g class="cls-2"><path class="cls-3" d="M147,226.1c-14.23,0-27.26-2.76-38.74-8.2A94.72,94.72,0,0,1,54,132.6,106.11,106.11,0,0,1,60.91,94a92,92,0,0,1,19.3-30.66A86.79,86.79,0,0,1,110,43.27a100,100,0,0,1,38.25-7.15A94.22,94.22,0,0,1,183.39,43a66.59,66.59,0,0,1,28.53,21.44l1.53,2-23.87,18.2-1.52-2a47,47,0,0,0-18-14.17,54.07,54.07,0,0,0-22.58-5,61.13,61.13,0,0,0-25.92,5.36,59.91,59.91,0,0,0-19.82,14.68A67.56,67.56,0,0,0,89,105.48a79.45,79.45,0,0,0-4.57,27.12,75.07,75.07,0,0,0,4.33,25.51,63.71,63.71,0,0,0,12.44,21.06,58.29,58.29,0,0,0,19.8,14.3,64.48,64.48,0,0,0,26.57,5.25c9.64,0,18.19-2,25.41-5.91a54.88,54.88,0,0,0,18.55-16.66l1.49-2.09,24.15,18.19-1.45,2a81.68,81.68,0,0,1-7.19,8.11,72.68,72.68,0,0,1-13.65,10.57,96.28,96.28,0,0,1-20.29,9.2A87.4,87.4,0,0,1,147,226.1Z"/><path class="cls-3" d="M148.27,38.62a91.32,91.32,0,0,1,34.19,6.71A63.84,63.84,0,0,1,209.93,66L190,81.13a49.24,49.24,0,0,0-18.9-14.92A56.3,56.3,0,0,0,147.53,61a63.34,63.34,0,0,0-27,5.59A62.08,62.08,0,0,0,99.91,81.88a69.73,69.73,0,0,0-13.3,22.75,81.55,81.55,0,0,0-4.72,28A77.2,77.2,0,0,0,86.36,159a65.89,65.89,0,0,0,12.93,21.88,60.5,60.5,0,0,0,20.64,14.92,66.66,66.66,0,0,0,27.6,5.47q15.16,0,26.6-6.22a57.1,57.1,0,0,0,19.39-17.4l20.14,15.17a80.5,80.5,0,0,1-7,7.83,69.92,69.92,0,0,1-13.18,10.19,93.39,93.39,0,0,1-19.77,9A84.56,84.56,0,0,1,147,223.6q-20.88,0-37.67-8a92.22,92.22,0,0,1-52.83-83,103.16,103.16,0,0,1,6.71-37.67A89.09,89.09,0,0,1,82,65.09a83.94,83.94,0,0,1,29-19.52,97.09,97.09,0,0,1,37.3-7m0-5A102.5,102.5,0,0,0,109.08,41,89.29,89.29,0,0,0,78.41,61.63,94.48,94.48,0,0,0,58.58,93.12a108.61,108.61,0,0,0-7.05,39.48,96.47,96.47,0,0,0,55.69,87.56c11.81,5.6,25.21,8.44,39.81,8.44a89.89,89.89,0,0,0,28.31-4.11A98.78,98.78,0,0,0,196.16,215a75.16,75.16,0,0,0,14.12-10.95,84,84,0,0,0,7.43-8.38l2.89-4-3.93-3-20.14-15.17-4.1-3.09-3,4.19a52.4,52.4,0,0,1-17.71,15.91c-6.85,3.72-15,5.61-24.22,5.61a62,62,0,0,1-25.55-5,55.81,55.81,0,0,1-19-13.69,61.23,61.23,0,0,1-12-20.24,72.58,72.58,0,0,1-4.18-24.66,76.94,76.94,0,0,1,4.43-26.27,65.07,65.07,0,0,1,12.35-21.14,57.41,57.41,0,0,1,19-14.07A58.67,58.67,0,0,1,147.53,66a51.59,51.59,0,0,1,21.54,4.77,44.51,44.51,0,0,1,17,13.42l3,3.95,4-3L213,69.94l4-3-3.06-4a69.06,69.06,0,0,0-29.58-22.23,96.71,96.71,0,0,0-36-7.07Z"/><path class="cls-5" d="M147,226.1c-14.23,0-27.26-2.76-38.74-8.2A94.72,94.72,0,0,1,54,132.6,106.11,106.11,0,0,1,60.91,94a92,92,0,0,1,19.3-30.66A86.79,86.79,0,0,1,110,43.27a100,100,0,0,1,38.25-7.15A94.22,94.22,0,0,1,183.39,43a66.59,66.59,0,0,1,28.53,21.44l1.53,2-23.87,18.2-1.52-2a47,47,0,0,0-18-14.17,54.07,54.07,0,0,0-22.58-5,61.13,61.13,0,0,0-25.92,5.36,59.91,59.91,0,0,0-19.82,14.68A67.56,67.56,0,0,0,89,105.48a79.45,79.45,0,0,0-4.57,27.12,75.07,75.07,0,0,0,4.33,25.51,63.71,63.71,0,0,0,12.44,21.06,58.29,58.29,0,0,0,19.8,14.3,64.48,64.48,0,0,0,26.57,5.25c9.64,0,18.19-2,25.41-5.91a54.88,54.88,0,0,0,18.55-16.66l1.49-2.09,24.15,18.19-1.45,2a81.68,81.68,0,0,1-7.19,8.11,72.68,72.68,0,0,1-13.65,10.57,96.28,96.28,0,0,1-20.29,9.2A87.4,87.4,0,0,1,147,226.1Z"/><path class="cls-6" d="M148.27,38.62a91.32,91.32,0,0,1,34.19,6.71A63.84,63.84,0,0,1,209.93,66L190,81.13a49.24,49.24,0,0,0-18.9-14.92A56.3,56.3,0,0,0,147.53,61a63.34,63.34,0,0,0-27,5.59A62.08,62.08,0,0,0,99.91,81.88a69.73,69.73,0,0,0-13.3,22.75,81.55,81.55,0,0,0-4.72,28A77.2,77.2,0,0,0,86.36,159a65.89,65.89,0,0,0,12.93,21.88,60.5,60.5,0,0,0,20.64,14.92,66.66,66.66,0,0,0,27.6,5.47q15.16,0,26.6-6.22a57.1,57.1,0,0,0,19.39-17.4l20.14,15.17a80.5,80.5,0,0,1-7,7.83,69.92,69.92,0,0,1-13.18,10.19,93.39,93.39,0,0,1-19.77,9A84.56,84.56,0,0,1,147,223.6q-20.88,0-37.67-8a92.22,92.22,0,0,1-52.83-83,103.16,103.16,0,0,1,6.71-37.67A89.09,89.09,0,0,1,82,65.09a83.94,83.94,0,0,1,29-19.52,97.09,97.09,0,0,1,37.3-7m0-5A102.5,102.5,0,0,0,109.08,41,89.29,89.29,0,0,0,78.41,61.63,94.48,94.48,0,0,0,58.58,93.12a108.61,108.61,0,0,0-7.05,39.48,96.47,96.47,0,0,0,55.69,87.56c11.81,5.6,25.21,8.44,39.81,8.44a89.89,89.89,0,0,0,28.31-4.11A98.78,98.78,0,0,0,196.16,215a75.16,75.16,0,0,0,14.12-10.95,84,84,0,0,0,7.43-8.38l2.89-4-3.93-3-20.14-15.17-4.1-3.09-3,4.19a52.4,52.4,0,0,1-17.71,15.91c-6.85,3.72-15,5.61-24.22,5.61a62,62,0,0,1-25.55-5,55.81,55.81,0,0,1-19-13.69,61.23,61.23,0,0,1-12-20.24,72.58,72.58,0,0,1-4.18-24.66,76.94,76.94,0,0,1,4.43-26.27,65.07,65.07,0,0,1,12.35-21.14,57.41,57.41,0,0,1,19-14.07A58.67,58.67,0,0,1,147.53,66a51.59,51.59,0,0,1,21.54,4.77,44.51,44.51,0,0,1,17,13.42l3,3.95,4-3L213,69.94l4-3-3.06-4a69.06,69.06,0,0,0-29.58-22.23,96.71,96.71,0,0,0-36-7.07Z"/></g><path class="cls-4" d="M145,224.1c-14.23,0-27.26-2.76-38.74-8.2A94.72,94.72,0,0,1,52,130.6,106.11,106.11,0,0,1,58.91,92a92,92,0,0,1,19.3-30.66A86.79,86.79,0,0,1,108,41.27a100,100,0,0,1,38.25-7.15A94.22,94.22,0,0,1,181.39,41a66.59,66.59,0,0,1,28.53,21.44l1.53,2-23.87,18.2-1.52-2a47,47,0,0,0-18-14.17,54.07,54.07,0,0,0-22.58-5,61.13,61.13,0,0,0-25.92,5.36A59.91,59.91,0,0,0,99.79,81.53,67.56,67.56,0,0,0,87,103.48a79.45,79.45,0,0,0-4.57,27.12,75.07,75.07,0,0,0,4.33,25.51,63.71,63.71,0,0,0,12.44,21.06,58.29,58.29,0,0,0,19.8,14.3,64.48,64.48,0,0,0,26.57,5.25c9.64,0,18.19-2,25.41-5.91a54.88,54.88,0,0,0,18.55-16.66l1.49-2.09,24.15,18.19-1.45,2a81.68,81.68,0,0,1-7.19,8.11,72.68,72.68,0,0,1-13.65,10.57,96.28,96.28,0,0,1-20.29,9.2A87.4,87.4,0,0,1,145,224.1Z"/><path class="cls-4" d="M146.27,36.62a91.32,91.32,0,0,1,34.19,6.71A63.84,63.84,0,0,1,207.93,64L188,79.13a49.24,49.24,0,0,0-18.9-14.92A56.3,56.3,0,0,0,145.53,59a63.34,63.34,0,0,0-27,5.59A62.08,62.08,0,0,0,97.91,79.88a69.73,69.73,0,0,0-13.3,22.75,81.55,81.55,0,0,0-4.72,28A77.2,77.2,0,0,0,84.36,157a65.89,65.89,0,0,0,12.93,21.88,60.5,60.5,0,0,0,20.64,14.92,66.66,66.66,0,0,0,27.6,5.47q15.16,0,26.6-6.22a57.1,57.1,0,0,0,19.39-17.4l20.14,15.17a80.5,80.5,0,0,1-7,7.83,69.92,69.92,0,0,1-13.18,10.19,93.39,93.39,0,0,1-19.77,9A84.56,84.56,0,0,1,145,221.6q-20.88,0-37.67-8a92.22,92.22,0,0,1-52.83-83,103.16,103.16,0,0,1,6.71-37.67A89.09,89.09,0,0,1,80,63.09a83.94,83.94,0,0,1,29-19.52,97.09,97.09,0,0,1,37.3-7m0-5A102.5,102.5,0,0,0,107.08,39,89.29,89.29,0,0,0,76.41,59.63,94.48,94.48,0,0,0,56.58,91.12a108.61,108.61,0,0,0-7.05,39.48,96.47,96.47,0,0,0,55.69,87.56c11.81,5.6,25.21,8.44,39.81,8.44a89.89,89.89,0,0,0,28.31-4.11A98.78,98.78,0,0,0,194.16,213a75.16,75.16,0,0,0,14.12-10.95,84,84,0,0,0,7.43-8.38l2.89-4-3.93-3-20.14-15.17-4.1-3.09-3,4.19a52.4,52.4,0,0,1-17.71,15.91c-6.85,3.72-15,5.61-24.22,5.61a62,62,0,0,1-25.55-5,55.81,55.81,0,0,1-19-13.69,61.23,61.23,0,0,1-12-20.24,72.58,72.58,0,0,1-4.18-24.66,76.94,76.94,0,0,1,4.43-26.27,65.07,65.07,0,0,1,12.35-21.14,57.41,57.41,0,0,1,19-14.07A58.67,58.67,0,0,1,145.53,64a51.59,51.59,0,0,1,21.54,4.77,44.51,44.51,0,0,1,17,13.42l3,3.95,4-3L211,67.94l4-3-3.06-4a69.06,69.06,0,0,0-29.58-22.23,96.71,96.71,0,0,0-36-7.07Z"/><path class="cls-7" d="M145,224.1c-14.23,0-27.26-2.76-38.74-8.2A94.72,94.72,0,0,1,52,130.6,106.11,106.11,0,0,1,58.91,92a92,92,0,0,1,19.3-30.66A86.79,86.79,0,0,1,108,41.27a100,100,0,0,1,38.25-7.15A94.22,94.22,0,0,1,181.39,41a66.59,66.59,0,0,1,28.53,21.44l1.53,2-23.87,18.2-1.52-2a47,47,0,0,0-18-14.17,54.07,54.07,0,0,0-22.58-5,61.13,61.13,0,0,0-25.92,5.36A59.91,59.91,0,0,0,99.79,81.53,67.56,67.56,0,0,0,87,103.48a79.45,79.45,0,0,0-4.57,27.12,75.07,75.07,0,0,0,4.33,25.51,63.71,63.71,0,0,0,12.44,21.06,58.29,58.29,0,0,0,19.8,14.3,64.48,64.48,0,0,0,26.57,5.25c9.64,0,18.19-2,25.41-5.91a54.88,54.88,0,0,0,18.55-16.66l1.49-2.09,24.15,18.19-1.45,2a81.68,81.68,0,0,1-7.19,8.11,72.68,72.68,0,0,1-13.65,10.57,96.28,96.28,0,0,1-20.29,9.2A87.4,87.4,0,0,1,145,224.1Z"/><path class="cls-8" d="M146.27,36.62a91.32,91.32,0,0,1,34.19,6.71A63.84,63.84,0,0,1,207.93,64L188,79.13a49.24,49.24,0,0,0-18.9-14.92A56.3,56.3,0,0,0,145.53,59a63.34,63.34,0,0,0-27,5.59A62.08,62.08,0,0,0,97.91,79.88a69.73,69.73,0,0,0-13.3,22.75,81.55,81.55,0,0,0-4.72,28A77.2,77.2,0,0,0,84.36,157a65.89,65.89,0,0,0,12.93,21.88,60.5,60.5,0,0,0,20.64,14.92,66.66,66.66,0,0,0,27.6,5.47q15.16,0,26.6-6.22a57.1,57.1,0,0,0,19.39-17.4l20.14,15.17a80.5,80.5,0,0,1-7,7.83,69.92,69.92,0,0,1-13.18,10.19,93.39,93.39,0,0,1-19.77,9A84.56,84.56,0,0,1,145,221.6q-20.88,0-37.67-8a92.22,92.22,0,0,1-52.83-83,103.16,103.16,0,0,1,6.71-37.67A89.09,89.09,0,0,1,80,63.09a83.94,83.94,0,0,1,29-19.52,97.09,97.09,0,0,1,37.3-7m0-5A102.5,102.5,0,0,0,107.08,39,89.29,89.29,0,0,0,76.41,59.63,94.48,94.48,0,0,0,56.58,91.12a108.61,108.61,0,0,0-7.05,39.48,96.47,96.47,0,0,0,55.69,87.56c11.81,5.6,25.21,8.44,39.81,8.44a89.89,89.89,0,0,0,28.31-4.11A98.78,98.78,0,0,0,194.16,213a75.16,75.16,0,0,0,14.12-10.95,84,84,0,0,0,7.43-8.38l2.89-4-3.93-3-20.14-15.17-4.1-3.09-3,4.19a52.4,52.4,0,0,1-17.71,15.91c-6.85,3.72-15,5.61-24.22,5.61a62,62,0,0,1-25.55-5,55.81,55.81,0,0,1-19-13.69,61.23,61.23,0,0,1-12-20.24,72.58,72.58,0,0,1-4.18-24.66,76.94,76.94,0,0,1,4.43-26.27,65.07,65.07,0,0,1,12.35-21.14,57.41,57.41,0,0,1,19-14.07A58.67,58.67,0,0,1,145.53,64a51.59,51.59,0,0,1,21.54,4.77,44.51,44.51,0,0,1,17,13.42l3,3.95,4-3L211,67.94l4-3-3.06-4a69.06,69.06,0,0,0-29.58-22.23,96.71,96.71,0,0,0-36-7.07Z"/><path class="cls-4" d="M80.17,198.7"/><g class="cls-2"><path class="cls-9" d="M140.68,166.84h-.3a15.34,15.34,0,0,1-6.55,5.91,20.57,20.57,0,0,1-8.74,1.84,23.19,23.19,0,0,1-6.4-.89,17.35,17.35,0,0,1-5.56-2.68,13.77,13.77,0,0,1-3.92-4.47,12.67,12.67,0,0,1-1.49-6.26,14.41,14.41,0,0,1,1.39-6.6,13.57,13.57,0,0,1,3.72-4.57,18.88,18.88,0,0,1,5.41-2.93,37.13,37.13,0,0,1,6.4-1.64,56.9,56.9,0,0,1,6.7-.7q3.37-.15,6.35-.15h3v-1.29a7.74,7.74,0,0,0-3.08-6.7,13,13,0,0,0-7.84-2.23,18.43,18.43,0,0,0-7,1.34,17.85,17.85,0,0,0-5.66,3.62l-6.25-6.26a23.09,23.09,0,0,1,9.28-5.86,34.17,34.17,0,0,1,11-1.79,27.65,27.65,0,0,1,8.54,1.14,18.8,18.8,0,0,1,5.76,2.93,13,13,0,0,1,3.52,4.12,19.2,19.2,0,0,1,1.79,4.72,26,26,0,0,1,.65,4.62q.1,2.23.1,3.92v27.4H140.68ZM140,152h-2.48q-2.48,0-5.56.2a29.25,29.25,0,0,0-5.81.94,13.28,13.28,0,0,0-4.62,2.18,4.77,4.77,0,0,0-1.89,4,5.08,5.08,0,0,0,.74,2.83,6.75,6.75,0,0,0,1.94,1.94A8.08,8.08,0,0,0,125,165.3a13,13,0,0,0,3,.35q6.15,0,9.08-2.93a10.8,10.8,0,0,0,2.93-8Z"/><path class="cls-9" d="M209.68,173.39H198.37v-7.65h-.2a16.71,16.71,0,0,1-5.16,6.21q-3.48,2.63-9.43,2.63a19.19,19.19,0,0,1-8.09-1.54,14.55,14.55,0,0,1-5.41-4.17,16.23,16.23,0,0,1-3-6,27.43,27.43,0,0,1-.89-7V125.73h11.91v24.13q0,2,.2,4.42a15.82,15.82,0,0,0,1,4.57,8.71,8.71,0,0,0,2.58,3.57,7.49,7.49,0,0,0,4.91,1.44,11.37,11.37,0,0,0,5-1,9.62,9.62,0,0,0,3.38-2.68,10.64,10.64,0,0,0,1.94-3.87,17.29,17.29,0,0,0,.6-4.57v-26h11.91Z"/><path class="cls-9" d="M250.59,138.94a10.91,10.91,0,0,0-9.33-4.87,10,10,0,0,0-4.67,1.19,4,4,0,0,0-2.28,3.87,3.34,3.34,0,0,0,1.89,3.18A20.72,20.72,0,0,0,241,144q2.88.7,6.2,1.44a24.48,24.48,0,0,1,6.2,2.28,13.61,13.61,0,0,1,4.77,4.22,12.59,12.59,0,0,1,1.89,7.35,13.29,13.29,0,0,1-1.84,7.2,14.43,14.43,0,0,1-4.77,4.72,21.16,21.16,0,0,1-6.6,2.58,34.71,34.71,0,0,1-7.35.79A31.59,31.59,0,0,1,229.24,173a19.4,19.4,0,0,1-8.34-5.76l7.94-7.45a22.32,22.32,0,0,0,4.91,4.22,11.88,11.88,0,0,0,6.4,1.64,12.83,12.83,0,0,0,2.68-.3,8.67,8.67,0,0,0,2.58-1,6.11,6.11,0,0,0,1.94-1.74,4.46,4.46,0,0,0-1.14-6.11,16.82,16.82,0,0,0-4.77-1.94q-2.88-.74-6.2-1.39A24,24,0,0,1,229,151.1a13,13,0,0,1-4.77-4,11.91,11.91,0,0,1-1.89-7.15A13.92,13.92,0,0,1,224,133a14.42,14.42,0,0,1,4.32-4.82,18.67,18.67,0,0,1,6.16-2.78,28.08,28.08,0,0,1,16.48.74,15.42,15.42,0,0,1,7.55,5.61Z"/><path class="cls-9" d="M280.77,153.73a12.1,12.1,0,0,0,4.17,8.34,13,13,0,0,0,8.64,3,14.21,14.21,0,0,0,7.5-1.84,20.74,20.74,0,0,0,5.31-4.62l8.54,6.45a24.19,24.19,0,0,1-9.33,7.35,27.51,27.51,0,0,1-10.82,2.18,28.6,28.6,0,0,1-10.13-1.79,24.28,24.28,0,0,1-8.24-5.06,24,24,0,0,1-5.51-7.89,27,27,0,0,1,0-20.55,24,24,0,0,1,5.51-7.89,24.3,24.3,0,0,1,8.24-5.06,28.6,28.6,0,0,1,10.13-1.79,23.16,23.16,0,0,1,9.08,1.74,19.48,19.48,0,0,1,7,5,23.17,23.17,0,0,1,4.57,8.09,34.31,34.31,0,0,1,1.64,11.07v3.28Zm24.42-8.94a11.23,11.23,0,0,0-3.28-8.29q-3.18-3-8.84-3a11.58,11.58,0,0,0-8.49,3.08,13.73,13.73,0,0,0-3.82,8.24Z"/><path class="cls-9" d="M330.21,166.44a7.37,7.37,0,0,1,2.33-5.46,7.73,7.73,0,0,1,5.61-2.28,8,8,0,0,1,5.56,2.18,7,7,0,0,1,2.38,5.36,7.37,7.37,0,0,1-2.33,5.46,7.73,7.73,0,0,1-5.61,2.28,7.84,7.84,0,0,1-3-.6,8.63,8.63,0,0,1-2.53-1.59,7.35,7.35,0,0,1-1.74-2.38A7,7,0,0,1,330.21,166.44Z"/><path class="cls-9" d="M359.2,149.56a25.19,25.19,0,0,1,2-10.28,24,24,0,0,1,5.51-7.89,24.28,24.28,0,0,1,8.24-5.06,29.58,29.58,0,0,1,20.25,0,24.33,24.33,0,0,1,8.24,5.06,24.05,24.05,0,0,1,5.51,7.89,27,27,0,0,1,0,20.55,24.05,24.05,0,0,1-5.51,7.89,24.3,24.3,0,0,1-8.24,5.06,29.58,29.58,0,0,1-20.25,0,24.25,24.25,0,0,1-8.24-5.06,24,24,0,0,1-5.51-7.89A25.19,25.19,0,0,1,359.2,149.56Zm11.91,0a15.46,15.46,0,0,0,.94,5.36,13.41,13.41,0,0,0,2.78,4.57,14.08,14.08,0,0,0,20.55,0,13.5,13.5,0,0,0,2.78-4.57,15.73,15.73,0,0,0,0-10.72,13.52,13.52,0,0,0-2.78-4.57,14.08,14.08,0,0,0-20.55,0,13.44,13.44,0,0,0-2.78,4.57A15.47,15.47,0,0,0,371.12,149.56Z"/><path class="cls-9" d="M424.13,125.73H436v7.55h.2a15,15,0,0,1,5.66-6.45,15.66,15.66,0,0,1,8.44-2.28,11.37,11.37,0,0,1,2.13.2q1,.2,2.13.5v11.52q-1.49-.4-2.93-.65a16.73,16.73,0,0,0-2.83-.25,12.81,12.81,0,0,0-6.7,1.54,12.24,12.24,0,0,0-3.87,3.52,11.73,11.73,0,0,0-1.79,4,15,15,0,0,0-.45,3v25.52H424.13Z"/><path class="cls-9" d="M512,125.73v43.39a40,40,0,0,1-1.59,11.67,22.61,22.61,0,0,1-4.92,8.84,22.18,22.18,0,0,1-8.39,5.61,32.87,32.87,0,0,1-12,2,46.06,46.06,0,0,1-12.61-1.69,28.18,28.18,0,0,1-11-6.16l7.15-9.73a29.09,29.09,0,0,0,7.45,5.06,21.11,21.11,0,0,0,8.94,1.79,19.16,19.16,0,0,0,7.2-1.19,11.64,11.64,0,0,0,4.67-3.28,12.56,12.56,0,0,0,2.48-5,26.37,26.37,0,0,0,.74-6.5V167h-.2a15.7,15.7,0,0,1-6.85,5.21A23,23,0,0,1,484.3,174a23.76,23.76,0,0,1-9.73-1.94,23.27,23.27,0,0,1-7.5-5.21,22.66,22.66,0,0,1-4.82-7.74,26.73,26.73,0,0,1-1.69-9.53,29.7,29.7,0,0,1,1.59-9.83,22.68,22.68,0,0,1,4.67-7.94,22.13,22.13,0,0,1,7.4-5.31,23.93,23.93,0,0,1,9.88-1.94,22.54,22.54,0,0,1,9.43,2,15.34,15.34,0,0,1,6.95,6.35h.2v-7.15Zm-25.42,9.53a15.25,15.25,0,0,0-5.76,1,12.67,12.67,0,0,0-7.3,7.35,15.65,15.65,0,0,0-1,5.81,13.7,13.7,0,0,0,1,5.36,13.5,13.5,0,0,0,2.93,4.37,13.86,13.86,0,0,0,4.47,3,14.09,14.09,0,0,0,5.56,1.09,15.27,15.27,0,0,0,5.91-1.09,13.61,13.61,0,0,0,4.47-2.93,12.51,12.51,0,0,0,2.83-4.42,15.39,15.39,0,0,0,1-5.56,13.9,13.9,0,0,0-3.77-10.13Q493.13,135.26,486.58,135.26Z"/></g><path class="cls-10" d="M138.68,164.84h-.3a15.34,15.34,0,0,1-6.55,5.91,20.57,20.57,0,0,1-8.74,1.84,23.19,23.19,0,0,1-6.4-.89,17.35,17.35,0,0,1-5.56-2.68,13.77,13.77,0,0,1-3.92-4.47,12.67,12.67,0,0,1-1.49-6.26,14.41,14.41,0,0,1,1.39-6.6,13.57,13.57,0,0,1,3.72-4.57,18.88,18.88,0,0,1,5.41-2.93,37.13,37.13,0,0,1,6.4-1.64,56.9,56.9,0,0,1,6.7-.7q3.37-.15,6.35-.15h3v-1.29a7.74,7.74,0,0,0-3.08-6.7,13,13,0,0,0-7.84-2.23,18.43,18.43,0,0,0-7,1.34,17.85,17.85,0,0,0-5.66,3.62l-6.25-6.26a23.09,23.09,0,0,1,9.28-5.86,34.17,34.17,0,0,1,11-1.79,27.65,27.65,0,0,1,8.54,1.14,18.8,18.8,0,0,1,5.76,2.93,13,13,0,0,1,3.52,4.12,19.2,19.2,0,0,1,1.79,4.72,26,26,0,0,1,.65,4.62q.1,2.23.1,3.92v27.4H138.68ZM138,150h-2.48q-2.48,0-5.56.2a29.25,29.25,0,0,0-5.81.94,13.28,13.28,0,0,0-4.62,2.18,4.77,4.77,0,0,0-1.89,4,5.08,5.08,0,0,0,.74,2.83,6.75,6.75,0,0,0,1.94,1.94A8.08,8.08,0,0,0,123,163.3a13,13,0,0,0,3,.35q6.15,0,9.08-2.93a10.8,10.8,0,0,0,2.93-8Z"/><path class="cls-10" d="M207.68,171.39H196.37v-7.65h-.2a16.71,16.71,0,0,1-5.16,6.21q-3.48,2.63-9.43,2.63a19.19,19.19,0,0,1-8.09-1.54,14.55,14.55,0,0,1-5.41-4.17,16.23,16.23,0,0,1-3-6,27.43,27.43,0,0,1-.89-7V123.73h11.91v24.13q0,2,.2,4.42a15.82,15.82,0,0,0,1,4.57,8.71,8.71,0,0,0,2.58,3.57,7.49,7.49,0,0,0,4.91,1.44,11.37,11.37,0,0,0,5-1,9.62,9.62,0,0,0,3.38-2.68,10.64,10.64,0,0,0,1.94-3.87,17.29,17.29,0,0,0,.6-4.57v-26h11.91Z"/><path class="cls-10" d="M248.59,136.94a10.91,10.91,0,0,0-9.33-4.87,10,10,0,0,0-4.67,1.19,4,4,0,0,0-2.28,3.87,3.34,3.34,0,0,0,1.89,3.18A20.72,20.72,0,0,0,239,142q2.88.7,6.2,1.44a24.48,24.48,0,0,1,6.2,2.28,13.61,13.61,0,0,1,4.77,4.22,12.59,12.59,0,0,1,1.89,7.35,13.29,13.29,0,0,1-1.84,7.2,14.43,14.43,0,0,1-4.77,4.72,21.16,21.16,0,0,1-6.6,2.58,34.71,34.71,0,0,1-7.35.79A31.59,31.59,0,0,1,227.24,171a19.4,19.4,0,0,1-8.34-5.76l7.94-7.45a22.32,22.32,0,0,0,4.91,4.22,11.88,11.88,0,0,0,6.4,1.64,12.83,12.83,0,0,0,2.68-.3,8.67,8.67,0,0,0,2.58-1,6.11,6.11,0,0,0,1.94-1.74,4.46,4.46,0,0,0-1.14-6.11,16.82,16.82,0,0,0-4.77-1.94q-2.88-.74-6.2-1.39A24,24,0,0,1,227,149.1a13,13,0,0,1-4.77-4,11.91,11.91,0,0,1-1.89-7.15A13.92,13.92,0,0,1,222,131a14.42,14.42,0,0,1,4.32-4.82,18.67,18.67,0,0,1,6.16-2.78,28.08,28.08,0,0,1,16.48.74,15.42,15.42,0,0,1,7.55,5.61Z"/><path class="cls-10" d="M278.77,151.73a12.1,12.1,0,0,0,4.17,8.34,13,13,0,0,0,8.64,3,14.21,14.21,0,0,0,7.5-1.84,20.74,20.74,0,0,0,5.31-4.62l8.54,6.45a24.19,24.19,0,0,1-9.33,7.35,27.51,27.51,0,0,1-10.82,2.18,28.6,28.6,0,0,1-10.13-1.79,24.28,24.28,0,0,1-8.24-5.06,24,24,0,0,1-5.51-7.89,27,27,0,0,1,0-20.55,24,24,0,0,1,5.51-7.89,24.3,24.3,0,0,1,8.24-5.06,28.6,28.6,0,0,1,10.13-1.79,23.16,23.16,0,0,1,9.08,1.74,19.48,19.48,0,0,1,7,5,23.17,23.17,0,0,1,4.57,8.09,34.31,34.31,0,0,1,1.64,11.07v3.28Zm24.42-8.94a11.23,11.23,0,0,0-3.28-8.29q-3.18-3-8.84-3a11.58,11.58,0,0,0-8.49,3.08,13.73,13.73,0,0,0-3.82,8.24Z"/><path class="cls-10" d="M328.21,164.44a7.37,7.37,0,0,1,2.33-5.46,7.73,7.73,0,0,1,5.61-2.28,8,8,0,0,1,5.56,2.18,7,7,0,0,1,2.38,5.36,7.37,7.37,0,0,1-2.33,5.46,7.73,7.73,0,0,1-5.61,2.28,7.84,7.84,0,0,1-3-.6,8.63,8.63,0,0,1-2.53-1.59,7.35,7.35,0,0,1-1.74-2.38A7,7,0,0,1,328.21,164.44Z"/><path class="cls-10" d="M357.2,147.56a25.19,25.19,0,0,1,2-10.28,24,24,0,0,1,5.51-7.89,24.28,24.28,0,0,1,8.24-5.06,29.58,29.58,0,0,1,20.25,0,24.33,24.33,0,0,1,8.24,5.06,24.05,24.05,0,0,1,5.51,7.89,27,27,0,0,1,0,20.55,24.05,24.05,0,0,1-5.51,7.89,24.3,24.3,0,0,1-8.24,5.06,29.58,29.58,0,0,1-20.25,0,24.25,24.25,0,0,1-8.24-5.06,24,24,0,0,1-5.51-7.89A25.19,25.19,0,0,1,357.2,147.56Zm11.91,0a15.46,15.46,0,0,0,.94,5.36,13.41,13.41,0,0,0,2.78,4.57,14.08,14.08,0,0,0,20.55,0,13.5,13.5,0,0,0,2.78-4.57,15.73,15.73,0,0,0,0-10.72,13.52,13.52,0,0,0-2.78-4.57,14.08,14.08,0,0,0-20.55,0,13.44,13.44,0,0,0-2.78,4.57A15.47,15.47,0,0,0,369.12,147.56Z"/><path class="cls-10" d="M422.13,123.73H434v7.55h.2a15,15,0,0,1,5.66-6.45,15.66,15.66,0,0,1,8.44-2.28,11.37,11.37,0,0,1,2.13.2q1,.2,2.13.5v11.52q-1.49-.4-2.93-.65a16.73,16.73,0,0,0-2.83-.25,12.81,12.81,0,0,0-6.7,1.54,12.24,12.24,0,0,0-3.87,3.52,11.73,11.73,0,0,0-1.79,4,15,15,0,0,0-.45,3v25.52H422.13Z"/><path class="cls-10" d="M510,123.73v43.39a40,40,0,0,1-1.59,11.67,22.61,22.61,0,0,1-4.92,8.84,22.18,22.18,0,0,1-8.39,5.61,32.87,32.87,0,0,1-12,2,46.06,46.06,0,0,1-12.61-1.69,28.18,28.18,0,0,1-11-6.16l7.15-9.73a29.09,29.09,0,0,0,7.45,5.06,21.11,21.11,0,0,0,8.94,1.79,19.16,19.16,0,0,0,7.2-1.19,11.64,11.64,0,0,0,4.67-3.28,12.56,12.56,0,0,0,2.48-5,26.37,26.37,0,0,0,.74-6.5V165h-.2a15.7,15.7,0,0,1-6.85,5.21A23,23,0,0,1,482.3,172a23.76,23.76,0,0,1-9.73-1.94,23.27,23.27,0,0,1-7.5-5.21,22.66,22.66,0,0,1-4.82-7.74,26.73,26.73,0,0,1-1.69-9.53,29.7,29.7,0,0,1,1.59-9.83,22.68,22.68,0,0,1,4.67-7.94,22.13,22.13,0,0,1,7.4-5.31,23.93,23.93,0,0,1,9.88-1.94,22.54,22.54,0,0,1,9.43,2,15.34,15.34,0,0,1,6.95,6.35h.2v-7.15Zm-25.42,9.53a15.25,15.25,0,0,0-5.76,1,12.67,12.67,0,0,0-7.3,7.35,15.65,15.65,0,0,0-1,5.81,13.7,13.7,0,0,0,1,5.36,13.5,13.5,0,0,0,2.93,4.37,13.86,13.86,0,0,0,4.47,3,14.09,14.09,0,0,0,5.56,1.09,15.27,15.27,0,0,0,5.91-1.09,13.61,13.61,0,0,0,4.47-2.93,12.51,12.51,0,0,0,2.83-4.42,15.39,15.39,0,0,0,1-5.56,13.9,13.9,0,0,0-3.77-10.13Q491.13,133.26,484.58,133.26Z"/><g class="cls-2"><path class="cls-11" d="M106.52,104.72a13.69,13.69,0,0,1,1.11-5.58,13,13,0,0,1,3-4.29,13.18,13.18,0,0,1,4.48-2.75,16.08,16.08,0,0,1,11,0,12.87,12.87,0,0,1,7.47,7,14.66,14.66,0,0,1,0,11.17,12.87,12.87,0,0,1-7.47,7,16.08,16.08,0,0,1-11,0,13.17,13.17,0,0,1-4.48-2.75,13,13,0,0,1-3-4.29A13.7,13.7,0,0,1,106.52,104.72Zm6.48,0a8.4,8.4,0,0,0,.51,2.91,7.29,7.29,0,0,0,1.51,2.48,7.66,7.66,0,0,0,11.17,0,7.33,7.33,0,0,0,1.51-2.48,8.54,8.54,0,0,0,0-5.83,7.34,7.34,0,0,0-1.51-2.48,7.66,7.66,0,0,0-11.17,0,7.3,7.3,0,0,0-1.51,2.48A8.4,8.4,0,0,0,113,104.72Z"/><path class="cls-11" d="M141.54,91.76h6.15v4h.11a8.76,8.76,0,0,1,2.78-3.26,8.43,8.43,0,0,1,5.15-1.43q6.1,0,8.09,4.8a9.16,9.16,0,0,1,3.51-3.64,10.25,10.25,0,0,1,5-1.16,10,10,0,0,1,4.37.86,7.66,7.66,0,0,1,2.89,2.37,9.79,9.79,0,0,1,1.59,3.54,18.57,18.57,0,0,1,.49,4.34v15.43h-6.48V103a12,12,0,0,0-.22-2.29,5.51,5.51,0,0,0-.76-1.94,3.84,3.84,0,0,0-1.46-1.32,5.07,5.07,0,0,0-2.37-.48,5.34,5.34,0,0,0-2.56.57A5,5,0,0,0,166.13,99a6.2,6.2,0,0,0-1,2.16,10.29,10.29,0,0,0-.3,2.46v14h-6.48V102.23a6.5,6.5,0,0,0-1-3.86,3.9,3.9,0,0,0-3.4-1.43,6.2,6.2,0,0,0-2.73.54,5.23,5.23,0,0,0-1.83,1.46,5.81,5.81,0,0,0-1.05,2.11,9.4,9.4,0,0,0-.32,2.48v14.14h-6.48Z"/><path class="cls-11" d="M189.57,91.76h6.15v4h.11a8.78,8.78,0,0,1,2.78-3.26,8.43,8.43,0,0,1,5.15-1.43q6.1,0,8.09,4.8a9.16,9.16,0,0,1,3.51-3.64,10.25,10.25,0,0,1,5-1.16,10,10,0,0,1,4.37.86,7.66,7.66,0,0,1,2.89,2.37,9.79,9.79,0,0,1,1.59,3.54,18.57,18.57,0,0,1,.49,4.34v15.43h-6.48V103a12,12,0,0,0-.22-2.29,5.51,5.51,0,0,0-.76-1.94,3.84,3.84,0,0,0-1.46-1.32,5.07,5.07,0,0,0-2.37-.48,5.34,5.34,0,0,0-2.56.57A5,5,0,0,0,214.16,99a6.2,6.2,0,0,0-1,2.16,10.29,10.29,0,0,0-.3,2.46v14h-6.48V102.23a6.5,6.5,0,0,0-1-3.86,3.9,3.9,0,0,0-3.4-1.43,6.2,6.2,0,0,0-2.72.54,5.25,5.25,0,0,0-1.84,1.46,5.8,5.8,0,0,0-1.05,2.11,9.36,9.36,0,0,0-.32,2.48v14.14h-6.48Z"/><path class="cls-11" d="M261.51,117.67h-6.15v-4.16h-.11a9.1,9.1,0,0,1-2.81,3.37,8.31,8.31,0,0,1-5.13,1.43,10.43,10.43,0,0,1-4.4-.84,7.91,7.91,0,0,1-2.94-2.27,8.82,8.82,0,0,1-1.62-3.26,14.91,14.91,0,0,1-.49-3.83V91.76h6.48v13.11q0,1.08.11,2.4a8.63,8.63,0,0,0,.57,2.48,4.73,4.73,0,0,0,1.4,1.94,4.07,4.07,0,0,0,2.67.78,6.18,6.18,0,0,0,2.73-.54,5.22,5.22,0,0,0,1.84-1.46,5.79,5.79,0,0,0,1.05-2.1,9.4,9.4,0,0,0,.32-2.48V91.76h6.48Z"/><path class="cls-11" d="M269.93,91.76h6.15v4.16h.11A9.09,9.09,0,0,1,279,92.55a8.31,8.31,0,0,1,5.13-1.43,10.15,10.15,0,0,1,4.4.86,8.32,8.32,0,0,1,2.94,2.27,8.57,8.57,0,0,1,1.62,3.24,14.92,14.92,0,0,1,.49,3.83v16.35h-6.48V104.55q0-1.08-.11-2.4a8.69,8.69,0,0,0-.57-2.48A4.67,4.67,0,0,0,285,97.73a4.1,4.1,0,0,0-2.64-.78,6.2,6.2,0,0,0-2.73.54,5.25,5.25,0,0,0-1.84,1.46,5.81,5.81,0,0,0-1.05,2.11,9.4,9.4,0,0,0-.32,2.48v14.14h-6.48Z"/><path class="cls-11" d="M301.17,83a3.73,3.73,0,0,1,1.16-2.73,4,4,0,0,1,2.94-1.16,4.29,4.29,0,0,1,3,1.11,3.79,3.79,0,0,1,0,5.56,4.28,4.28,0,0,1-3,1.11,4,4,0,0,1-2.94-1.16A3.72,3.72,0,0,1,301.17,83Zm.92,8.8h6.48v25.9h-6.48Z"/><path class="cls-11" d="M314.07,97.27v-5.5h5.34v-7.5h6.48v7.5H333v5.5h-7.12V108.6a5.64,5.64,0,0,0,.73,3.08q.73,1.13,2.89,1.13a10.45,10.45,0,0,0,1.89-.19A4,4,0,0,0,333,112v5.45a8.35,8.35,0,0,1-2.51.67,20.93,20.93,0,0,1-2.62.19,13.25,13.25,0,0,1-4.24-.57,5.57,5.57,0,0,1-2.59-1.73,6.54,6.54,0,0,1-1.3-2.89,20.16,20.16,0,0,1-.35-4V97.27Z"/><path class="cls-11" d="M335.66,91.76h7.12l7.23,18h.11l6.48-18h6.75l-12.25,31.46a19.8,19.8,0,0,1-1.54,3.21,9.23,9.23,0,0,1-2,2.32,7.46,7.46,0,0,1-2.67,1.4,13,13,0,0,1-3.7.46,19.17,19.17,0,0,1-5-.65l.81-5.83a13.72,13.72,0,0,0,1.59.46,7.71,7.71,0,0,0,1.7.19,7.92,7.92,0,0,0,2-.22,3.47,3.47,0,0,0,2.32-1.86q.38-.73.81-1.75l1.24-3.08Z"/></g><path class="cls-12" d="M104.52,102.72a13.69,13.69,0,0,1,1.11-5.58,13,13,0,0,1,3-4.29,13.18,13.18,0,0,1,4.48-2.75,16.08,16.08,0,0,1,11,0,12.87,12.87,0,0,1,7.47,7,14.66,14.66,0,0,1,0,11.17,12.87,12.87,0,0,1-7.47,7,16.08,16.08,0,0,1-11,0,13.17,13.17,0,0,1-4.48-2.75,13,13,0,0,1-3-4.29A13.7,13.7,0,0,1,104.52,102.72Zm6.48,0a8.4,8.4,0,0,0,.51,2.91,7.29,7.29,0,0,0,1.51,2.48,7.66,7.66,0,0,0,11.17,0,7.33,7.33,0,0,0,1.51-2.48,8.54,8.54,0,0,0,0-5.83,7.34,7.34,0,0,0-1.51-2.48,7.66,7.66,0,0,0-11.17,0,7.3,7.3,0,0,0-1.51,2.48A8.4,8.4,0,0,0,111,102.72Z"/><path class="cls-12" d="M139.54,89.76h6.15v4h.11a8.76,8.76,0,0,1,2.78-3.26,8.43,8.43,0,0,1,5.15-1.43q6.1,0,8.09,4.8a9.16,9.16,0,0,1,3.51-3.64,10.25,10.25,0,0,1,5-1.16,10,10,0,0,1,4.37.86,7.66,7.66,0,0,1,2.89,2.37,9.79,9.79,0,0,1,1.59,3.54,18.57,18.57,0,0,1,.49,4.34v15.43h-6.48V101A12,12,0,0,0,173,98.7a5.51,5.51,0,0,0-.76-1.94,3.84,3.84,0,0,0-1.46-1.32,5.07,5.07,0,0,0-2.37-.48,5.34,5.34,0,0,0-2.56.57A5,5,0,0,0,164.13,97a6.2,6.2,0,0,0-1,2.16,10.29,10.29,0,0,0-.3,2.46v14h-6.48V100.23a6.5,6.5,0,0,0-1-3.86,3.9,3.9,0,0,0-3.4-1.43,6.2,6.2,0,0,0-2.73.54,5.23,5.23,0,0,0-1.83,1.46A5.81,5.81,0,0,0,146.34,99a9.4,9.4,0,0,0-.32,2.48v14.14h-6.48Z"/><path class="cls-12" d="M187.57,89.76h6.15v4h.11a8.78,8.78,0,0,1,2.78-3.26,8.43,8.43,0,0,1,5.15-1.43q6.1,0,8.09,4.8a9.16,9.16,0,0,1,3.51-3.64,10.25,10.25,0,0,1,5-1.16,10,10,0,0,1,4.37.86,7.66,7.66,0,0,1,2.89,2.37,9.79,9.79,0,0,1,1.59,3.54,18.57,18.57,0,0,1,.49,4.34v15.43h-6.48V101A12,12,0,0,0,221,98.7a5.51,5.51,0,0,0-.76-1.94,3.84,3.84,0,0,0-1.46-1.32,5.07,5.07,0,0,0-2.37-.48,5.34,5.34,0,0,0-2.56.57A5,5,0,0,0,212.16,97a6.2,6.2,0,0,0-1,2.16,10.29,10.29,0,0,0-.3,2.46v14h-6.48V100.23a6.5,6.5,0,0,0-1-3.86,3.9,3.9,0,0,0-3.4-1.43,6.2,6.2,0,0,0-2.72.54,5.25,5.25,0,0,0-1.84,1.46A5.8,5.8,0,0,0,194.37,99a9.36,9.36,0,0,0-.32,2.48v14.14h-6.48Z"/><path class="cls-12" d="M259.51,115.67h-6.15v-4.16h-.11a9.1,9.1,0,0,1-2.81,3.37,8.31,8.31,0,0,1-5.13,1.43,10.43,10.43,0,0,1-4.4-.84,7.91,7.91,0,0,1-2.94-2.27,8.82,8.82,0,0,1-1.62-3.26,14.91,14.91,0,0,1-.49-3.83V89.76h6.48v13.11q0,1.08.11,2.4a8.63,8.63,0,0,0,.57,2.48,4.73,4.73,0,0,0,1.4,1.94,4.07,4.07,0,0,0,2.67.78,6.18,6.18,0,0,0,2.73-.54,5.22,5.22,0,0,0,1.84-1.46,5.79,5.79,0,0,0,1.05-2.1,9.4,9.4,0,0,0,.32-2.48V89.76h6.48Z"/><path class="cls-12" d="M267.93,89.76h6.15v4.16h.11A9.09,9.09,0,0,1,277,90.55a8.31,8.31,0,0,1,5.13-1.43,10.15,10.15,0,0,1,4.4.86,8.32,8.32,0,0,1,2.94,2.27,8.57,8.57,0,0,1,1.62,3.24,14.92,14.92,0,0,1,.49,3.83v16.35h-6.48V102.55q0-1.08-.11-2.4a8.69,8.69,0,0,0-.57-2.48A4.67,4.67,0,0,0,283,95.73a4.1,4.1,0,0,0-2.64-.78,6.2,6.2,0,0,0-2.73.54,5.25,5.25,0,0,0-1.84,1.46A5.81,5.81,0,0,0,274.73,99a9.4,9.4,0,0,0-.32,2.48v14.14h-6.48Z"/><path class="cls-12" d="M299.17,81a3.73,3.73,0,0,1,1.16-2.73,4,4,0,0,1,2.94-1.16,4.29,4.29,0,0,1,3,1.11,3.79,3.79,0,0,1,0,5.56,4.28,4.28,0,0,1-3,1.11,4,4,0,0,1-2.94-1.16A3.72,3.72,0,0,1,299.17,81Zm.92,8.8h6.48v25.9h-6.48Z"/><path class="cls-12" d="M312.07,95.27v-5.5h5.34v-7.5h6.48v7.5H331v5.5h-7.12V106.6a5.64,5.64,0,0,0,.73,3.08q.73,1.13,2.89,1.13a10.45,10.45,0,0,0,1.89-.19A4,4,0,0,0,331,110v5.45a8.35,8.35,0,0,1-2.51.67,20.93,20.93,0,0,1-2.62.19,13.25,13.25,0,0,1-4.24-.57,5.57,5.57,0,0,1-2.59-1.73,6.54,6.54,0,0,1-1.3-2.89,20.16,20.16,0,0,1-.35-4V95.27Z"/><path class="cls-12" d="M333.66,89.76h7.12l7.23,18h.11l6.48-18h6.75l-12.25,31.46a19.8,19.8,0,0,1-1.54,3.21,9.23,9.23,0,0,1-2,2.32,7.46,7.46,0,0,1-2.67,1.4,13,13,0,0,1-3.7.46,19.17,19.17,0,0,1-5-.65l.81-5.83a13.72,13.72,0,0,0,1.59.46,7.71,7.71,0,0,0,1.7.19,7.92,7.92,0,0,0,2-.22,3.47,3.47,0,0,0,2.32-1.86q.38-.73.81-1.75l1.24-3.08Z"/></g></g></g></svg>